<?xml version="1.0" encoding="utf-8"?>
<!-- Generator: Adobe Illustrator 24.2.3, SVG Export Plug-In . SVG Version: 6.00 Build 0)  -->
<svg version="1.1" id="Layer_1" xmlns="http://www.w3.org/2000/svg" xmlns:xlink="http://www.w3.org/1999/xlink" x="0px" y="0px"
	 viewBox="0 0 2000 2000" style="enable-background:new 0 0 2000 2000;" xml:space="preserve">
<path d="M86.84,877.24c-3.6-47.9,4.43-94.01,25.66-136.97c11.99-24.27,17.54-49.82,22.94-75.76c3.86-18.49,11.15-35.62,22.97-50.48
	c15.25-19.16,48.46-21.74,65.23-2.21c3.02,3.52,5.71,8,10.85,9.15c3.06,0.69,7.28,2.67,8.91-0.57c1.64-3.26-0.86-6.36-4.54-8.27
	c-6.18-3.21-12.55-6.35-18-10.6c-43.31-33.73-69.57-78.94-83.55-130.93c-6.8-25.29-5.28-32.66,25.01-37.57
	c10.45-1.69,21.14-1.58,31.42-5.33c7.2-2.63,14.29,2.65,21.61,3.7c24.09,3.45,47.06,10.39,65.98,26.9
	c3.45,3.01,7.91,3.33,11.94,2.11c4.36-1.31,3.55-5.83,3.63-9.2c0.25-11.37,0.36-22.74,0.12-34.11
	c-0.87-41.56,13.55-77.68,38.83-109.99c4.61-5.89,10.84-8.24,17.91-6.33c6.58,1.78,10.24,7.03,10.58,13.68
	c0.81,15.56,1.28,31.14,1.55,46.72c0.25,14.04,1.91,27.87,6.1,41.26c7.32,23.38,28.49,45.22,59.1,33.39
	c8.29-3.2,18.64-1.09,28.05-1.38c27.42-0.86,54.06,3.31,80.07,12.04c18.63,6.25,30.34-0.59,37.76-20.39
	c6.44-17.19,8.61-35.23,11.9-53.06c1.12-6.05,2.4-12.11,4.23-17.97c1.69-5.42,3-11.5,10.35-12.52c7.57-1.05,13.17,1.87,17.32,8.06
	c12.5,18.64,18.33,39.62,21.36,61.52c1.69,12.21,3.29,24.44,4.48,36.71c0.73,7.57,3.85,8.75,9.96,5.02
	c7.92-4.83,14.57-11.3,22.23-16.57c24.56-16.89,49.93-32.14,77.69-43.03c9.17-3.6,19.14-5.08,28.68-7.74
	c31.99-8.94,65.03-12.52,97.77-6.05c27.85,5.51,56.42,9.31,82.37,22.32c2.54,1.27,5.64,1.6,8.53,1.95
	c31.95,3.92,63.21,1.16,93.56-9.98c0.91-0.33,1.85-0.87,2.77-0.86c26.35,0.22,50.06-11.58,75.08-17.25
	c21.17-4.8,42.66-9.7,63.19-17.39c1.51-0.56,3.11-1.08,4.7-1.18c18.68-1.18,36.42-7.38,54.93-10.08
	c31.99-4.67,63.72-6.36,95.57-2.71c33.65,3.86,65.97,12.81,95.45,30.5c42.18,25.32,73.81,60.84,98.76,102.46
	c22.59,37.68,39.59,77.99,54.17,119.46c26.56,75.58,42.84,153.85,62.42,231.27c3.49,13.79,7.34,27.51,10.31,41.42
	c4.99,23.38,22.64,34.81,40.94,46.78c19.89,13.01,42.32,20.3,63.42,30.47c10.91,5.26,23.94,6.92,36.07,9.85
	c23.19,5.59,46.67,10,69.98,15.13c9.02,1.99,14.79,9.48,14.79,19c-0.01,7.79-0.85,15.57-0.92,23.36c-0.05,5.4,1.14,10.63,7.7,11.7
	c10.7,1.74,13.51,9.34,12.89,18.34c-2.03,29.77-3.76,59.61-7.26,89.22c-2.27,19.19-12.92,19.6-28.42,15.16
	c-26.43-7.58-52.85-13.9-80.47-13.78c-63.14,0.28-126.28,2.94-189.43,1.01c-27.17-0.83-53.33-6.73-78.54-17.47
	c-9.24-3.94-17.65-8.83-26.26-13.74c-13.82-7.88-28.75-3.77-42.92-1.18c-52.15,9.55-104.54,8.09-157.12,5.75
	c-24.42-1.09-47.92-8.09-72.29-9.02c-9.59-0.36-15.69,1.67-16.92,12.28c-0.89,7.71-2.63,15.32-4.12,22.95
	c-3.32,16.95-8.85,19.94-24.99,14.24c-14.44-5.1-28.89-10.14-43.49-14.82c-24.93-7.98-50.39-10.18-76.07-13.06
	c-42.95-4.82-86.27-3.69-129.06-8.66c-26.81-3.12-52.97-10.81-78.44-21.23c-18.4-7.52-34.46-17.83-50.57-28.76
	c-8.09-5.49-17.67-4.05-26.58-2.79c-20.65,2.92-41.38,4.21-62.16,3.33c-26.94-1.13-53.94-2.25-80.73-5.08
	c-14.08-1.49-27.94-5.03-42.3-5.12c-12.12-0.08-21.45,4.97-30.24,12.72c-26.07,23.01-55.03,41.12-89.26,49.34
	c-11.56,2.78-23.53,3.69-35.27,5.83c-15.87,2.89-28.15,12.04-41.01,20.28c-18.1,11.6-35.92,22.38-58.11,26.14
	c-15.14,2.56-30.04,4.16-45,3.07c-29.28-2.12-56.83-9.42-83.15-24.15c-46.07-25.78-78.99-63.45-102.62-109.05
	C100.84,988.24,83.78,935.01,86.84,877.24z M1787.49,1095.11c0.01,0.07,0.01,0.14,0.02,0.2c4.55,0,9.1-0.01,13.65,0
	c4.88,0.01,9.76,0.22,14.63,0.04c11.15-0.4,16.18-4.34,17.91-15.1c1.34-8.3,1.67-16.77,2.39-25.17c0.61-7.05-2.02-11.44-9.33-13.6
	c-14.75-4.36-29.29-9.4-43.9-14.22c-13.67-4.52-26.07-11.83-39.06-17.84c-16.6-7.67-29.3-20.61-42.56-32.25
	c-12.77-11.21-23.87-25.11-21.88-44.84c0.73-7.27-0.14-15.11-2.12-22.18c-14.54-52-29.48-103.89-44.47-155.76
	c-2.97-10.28-10.69-13.27-20.05-7.61c-9.86,5.97-19.87,10.87-31.05,14.42c-21.5,6.82-42.15,4.35-60.78-5.91
	c-32.24-17.75-49.51-47.42-59.18-82.17c-7.77-27.92-6.56-55.89-1.07-83.81c6.61-33.53,3.64-64.65-18.6-92.43
	c-21.13-26.39-34.72-55.53-32.06-90.68c1.02-13.52-2.51-17.06-15.6-19.89c-25.34-5.47-50.77-9.5-76.97-8.37
	c-31.61,1.36-62.51,6.66-93.46,12.73c-14.28,2.8-28.14,7.02-42.39,9.91c-25.4,5.15-50.21,13.19-75.59,18.47
	c-21.06,4.38-41.97,9.33-62.98,13.89c-1.79,0.39-4.19,0.01-4.24,2.85c-0.05,2.64,2.49,2.53,4.01,3.53
	c10.7,6.97,21.62,13.6,31.55,21.71c3.9,3.18,6.48,7.04,4.78,11.7c-1.89,5.16-6.98,3.51-11.08,3.2c-13-0.99-24.58-7.38-36.62-11.29
	c-12.26-3.98-21.53-0.36-29.88,5.06c-22.55,14.64-44.49,30.3-68.33,42.75c-21.07,11-43.41,16.24-66.94,7.23
	c-5.72-2.19-8.43,0.6-10.17,5.57c-11.3,32.12-27.23,61.64-47.73,88.94c-14.87,19.8-32.99,35.28-54.15,47.75
	c-15.34,9.03-31.68,15.3-48.78,19.87c-8.97,2.39-13.69,7.91-12.87,17.68c0.84,10.03,1.45,20.08,1.81,30.14
	c0.65,18.17,0.99,36.36,1.58,54.53c0.08,2.49-0.08,5.59,2.72,6.79c2.92,1.25,3.62-2.04,5.12-3.45c12.6-11.86,26.26-19.58,44.85-17.6
	c13.44,1.43,27.15,2.75,40.81,1.04c19.22-2.41,34.69-14.11,52.06-21.11c31.19-12.58,47.74-6.93,63.59,17.72
	c10.03,15.6,14.88,32.86,17.62,50.86c5.46,35.9-8.75,54.69-44.15,59.49c-10.19,1.38-20.76,2.73-30.16,6.54
	c-15.59,6.33-27.27,18.38-38.66,30.63c-14.98,16.12-30.6,31.42-52.87,37.72c-15.77,4.46-30.77,6.45-47.11,0.82
	c-11.41-3.93-19.83-11.59-29.62-17.42c-7.61-4.53-12.46-1.33-15.22,4.24c-11.43,23.08-22.1,46.53-32.98,69.88
	c-3.05,6.54-1.1,9.45,6.4,9.66c14.27,0.41,28.7,0.34,42.74,2.5c29.37,4.53,58.93,2.94,88.38,4.48c2.89,0.15,5.64,0.07,8.15-2.2
	c10.91-9.85,10.87-9.62,23.25-0.7c7.7,5.55,15.24,11.85,23.84,15.53c13.19,5.64,25.36,13.17,38.98,18.26
	c18.08,6.75,36.38,13.51,55.08,15.92c39.12,5.05,78.44,10.04,118.13,8.37c4.86-0.2,9.78-0.2,14.62,0.27
	c19.31,1.9,38.69,1.54,58.08,4.27c31.63,4.45,27.07,3.9,32.78-22.88c0.27-1.27,0.67-2.51,0.91-3.79
	c3.07-16.23,1.34-20.97-12.16-29.46c-3.73-2.35-8.5-3.02-12.77-4.54c-13.23-4.72-25.89-10.71-38.48-16.92
	c-13.32-6.56-24.99-15.57-36.97-24.04c-16.47-11.65-28.99-26.99-38.38-44.84c-1.84-3.49-3.75-7.71,0.51-10.29
	c3.75-2.27,7.2,0.13,10.24,3.14c5.7,5.63,11.2,11.8,17.87,16.04c7.2,4.57,14.83,13.39,24.34,7.01c13.2-8.86,25.42-19.21,37.81-29.24
	c26.9-21.76,50.7-47.65,84.18-60.44c27.32-10.44,51.95-5.78,70.75,13.78c18.76,19.52,30.37,43.87,43.82,66.9
	c12.6,21.57,29.39,37.75,53.74,44.57c18.34,5.14,37.41,7.37,55.33,14.37c11.07,4.33,21.12,9.7,29.31,18.52
	c9.72,10.48,17.41,22.21,23.79,34.96c5.62,11.24,7.83,11.29,14.88,1.22c1.66-2.38,3.02-6.06,6.45-3.19
	c5.76,4.82,13.23,6,19.32,10.55c8.88,6.63,19.57,10.62,29.66,15.45c10.82,5.18,22.55,5.55,33.53,9.04
	c21.07,6.71,42.44,11.12,64.54,10.72c35.24-0.65,70.49,1.5,105.64-5.16C1748.79,1094.63,1768.35,1095.97,1787.49,1095.11z
	 M282.97,645.08c-12.87,1.17-26.67-1.43-38.49,4.01c-19.54,8.99-39.34,17.13-56.25,31.92c-23.66,20.7-42.46,44.53-55.27,72.7
	c-13.1,28.81-19.01,60.07-21.34,91.32c-6.7,90.1,23.44,167.18,86.58,231.47c17.83,18.16,38.29,32.36,61.97,42.67
	c20.19,8.79,40.38,15.23,62.39,13.89c21.29-1.3,41.43-6.23,61.24-15.38c38.44-17.75,61.54-49.41,80.8-84.45
	c17.44-31.74,23.8-66.86,26.06-102.83c3.64-57.95-8.09-112.51-35.04-163.85c-2.12-4.03-4.67-7.58-10.53-6.48
	c-6.99,1.32-10.11-2.53-10.59-9.25c-0.61-8.41-2.15-16.81-2.06-25.2c0.22-20.86-8.66-38.33-20.48-54.26
	c-5.62-7.57-13.64-12.84-24.72-13.05c-15.83-0.3-29.99,2.09-44.51,9.61c-17.92,9.27-18.86,7.72-17.54-12.93
	c0.36-5.58-0.66-8.27-7.11-8.3C306.39,646.65,294.71,645.67,282.97,645.08z M773.02,612.49c11.01-5.21,15.57-12.6,20.78-19.39
	c11.7-15.28,23.55-30.47,30.44-48.73c3.76-9.98,1.34-15.85-7.44-22.37c-10.6-7.88-23.66-8.61-35.47-10.54
	c-19.8-3.24-39.87-3.71-60.27,2.02c-16.2,4.55-32.63,7.93-46.46,17.58c-11.05,7.72-24.3,12.07-32.98,23.83
	c-4.51,6.12-10.06,12.66-17.54,16.3c-8.09,3.93-11.63,1.72-11.21-7.27c0.26-5.49,1.01-10.97,1.64-16.44
	c0.8-6.89-2.15-9.76-8.84-12.38c-7.63-2.98-16.21-3.24-23.09-8.84c-11.51-9.37-18.02-21.64-22.38-35.27
	c-2.89-9.05-7.9-12.56-17.41-9.67c-8.07,2.45-15.13,1.1-22.45-4.55c-5.18-4-11.89-7.18-19.26-8.01
	c-40.14-4.57-79.49-5.77-118.34,10.19c-24.45,10.05-45.73,22.87-60.48,44.63c-17.1,25.24-21.14,55.1-26.95,84.17
	c-1.03,5.17,1.72,9.51,6.55,11.96c14.14,7.16,29.35,10.87,44.91,13.14c5.13,0.75,9.98-1.27,15-2.91c12.43-4.06,26.53-6,38-0.93
	c22.04,9.74,37.15,27.67,42.88,51.48c6.58,27.29,18.47,52.13,31.74,76.54c20.77,38.2,33.28,78.9,38.88,122.09
	c7.38,56.97-0.6,111.59-20.51,165.14c-5.64,15.18-13.56,29.03-20.56,43.42c-1.04,2.14-2.22,4.16-0.83,6.32
	c1.31,2.02,3.55,1.3,5.34,0.75c25.55-7.77,49.8-18.96,70.78-35.15c29.53-22.8,50.85-53.07,69.31-85.21
	c19.81-34.5,31.59-71.91,40.12-110.61c11.66-52.94,12.35-106.22,6.3-159.72c-1.52-13.41-6.77-25.81-22.48-29.37
	c-4.47-1.02-4.72-4.88-4.59-8.5c0.14-3.79,3.13-4.68,6.15-4.9c2.9-0.21,5.86-0.19,8.75,0.13c17.6,1.96,35.04,0.59,52.33-2.65
	c7.48-1.4,14.73-3.76,20.64-11.91c-12.17,0-22.81,0.19-33.43-0.07c-5.95-0.15-11.23-2.34-11.65-9.24
	c-0.37-6.15,4.33-8.86,9.38-10.64c11.74-4.14,23.86-7.03,35.04-12.94c18.95-10.02,35.83-21.95,45.91-41.69
	c2.57-5.03,6.23-10.68,2.91-15.31c-4.21-5.87-12.02-6.83-18.59-4.29c-8.09,3.13-16.49,3.18-24.73,4.69
	c-5.11,0.94-10.8,0.58-15.27,2.77c-20.6,10.09-40.57,21.43-59.01,35.09c-4.36,3.23-8.42,6.53-12.55,2.82
	c-4.35-3.9-2.55-9.15,0.8-13.94c15.13-21.64,33.96-38.65,58.64-48.89c27.27-11.31,54.77-14.4,82.79-3.08
	c9.62,3.89,13.37,10.78,9.77,19.88C786.45,571.13,785.33,592.31,773.02,612.49z M634.04,521.32c0.48,2.81,0.91,7.4,5.1,9.52
	c4.54,2.3,8.18-1.45,11.39-3.62c21.24-14.38,41.63-29.81,67.7-35.64c7.7-1.72,15.83-2.58,23.35-5.44c9.99-3.8,20.49-3.34,30.53-1.79
	c15.47,2.39,30.68,6.45,45.99,9.83c2.22,0.49,5.07,1.59,6.32-0.46c1.46-2.39-0.4-4.7-2.24-6.82
	c-11.96-13.81-23.92-27.68-38.48-38.81c-9.33-7.13-19.27-15.09-31.87-13.3c-9.1,1.3-18.39,4.45-26.51,8.81
	c-27.35,14.69-52.46,32.87-76.24,52.73C641.93,502.32,634.11,508.97,634.04,521.32z M289.16,544.03c0.58-4.89-1.6-10.05-6.85-15.76
	c-15.43-16.77-35.69-24.06-56.09-31.25c-6.41-2.26-15.3-6.27-19.92-0.61c-4.48,5.49,0.5,13.64,3.64,19.94
	c12.97,26.06,35.97,41.18,60.81,53.7c8.73,4.4,13.18,0.94,16.09-8.51C288.4,556.5,288.58,551.4,289.16,544.03z M198.26,456.13
	c-8.43,0-16.85-0.06-25.28,0.01c-13.09,0.12-17.88,6.76-13.59,19.36c6.98,20.48,16.16,39.89,28.7,57.63
	c1.25,1.77,1.61,5.14,4.39,4.09c3.48-1.31,0.92-4.29,0.58-6.54c-2.37-15.63-4.93-31.23-7.11-46.88c-0.72-5.13-0.41-8.87,6.46-11.65
	c9.32-3.77,18.37-1.84,27.48-2.66c19.25-1.74,35.18,6.78,50.66,16.88c8.61,5.62,16.29,12.29,24.02,18.97
	c2.72,2.35,6.12,3.37,8.72,0.8c2.51-2.47,0.15-5.46-1.32-7.87c-0.8-1.32-2.28-2.22-3.4-3.37c-13.81-14.15-30.71-22.45-48.83-30.38
	C232.65,457.06,215.97,455.19,198.26,456.13z M1164.63,1072.4c-0.09,0.01-0.18,0.01-0.27,0.02c0.28,4.19,0.16,8.46,0.91,12.56
	c1.82,9.93,16.43,19.12,29.43,18.54c11.25-0.5,8.03-10.43,9.12-16.2c4.74-25.18,4.58-25.02-18.56-33.56
	c-17.84-6.58-20.35-4.82-20.63,14.76C1164.62,1069.81,1164.63,1071.1,1164.63,1072.4z M1816.51,997.96
	c-33.55-13.4-69.11-22.34-98.93-45.73c-1.41,6.06,0.12,9.09,3.89,12.09c5.66,4.51,12.28,6.68,18.61,9.75
	c18.06,8.78,36.1,17.65,55.21,23.78C1801.64,999.9,1808.8,1002.56,1816.51,997.96z M195.49,632.13
	c-15.12-1.91-23.36,6.36-30.87,15.83c-1.17,1.47-1.99,3.86-0.26,5.27c1.72,1.39,3.56-0.22,5.07-1.36
	C177.7,645.63,185.95,639.37,195.49,632.13z"/>
<path d="M1025.23,1392.97c5.48-23.45,12.23-46.25,23.29-67.68c8.37-16.21,18.59-31.49,34.23-40.53
	c12.49-7.22,27.69-13.77,41.84-12.38c26.97,2.65,50.06,14.18,62.04,41.36c13.92,31.58,16.76,64.87,17.29,98.73
	c0.41,26,0.31,52.1-2.9,77.8c-3.94,31.47-11.81,62.33-32.44,87.79c-11.01,13.58-24.7,23.55-43.69,22.21
	c-11.75-0.83-23.23,0.54-35.27-3.34c-21.82-7.04-34.43-22.78-44.29-41.12c-17.25-32.09-22.87-52.33-22.07-101.7
	c-3.61,32.16-6.41,64.43-20.93,94.24c-8.49,17.42-18.2,33.64-34.54,44.84c-4.34,2.97-9.29,4.41-14.73,4.25
	c-12.98-0.37-25.98-0.31-38.95-0.83c-6.58-0.26-14.04,0.64-17.14-7.74c-0.17-0.47-1.02-0.97-1.56-0.98
	c-15.43-0.34-20.31-13.94-27.04-23.48c-10.37-14.69-17.55-31.49-20.79-49.56c-9.14-51.04-9.08-101.93,3.1-152.5
	c5.85-24.3,14.66-47.36,31.91-66.27c13.97-15.33,31.11-24.68,51.96-25.6c15.06-0.66,29.57,0.14,43.39,9.22
	c16.67,10.95,25.58,26.63,32.59,43.9C1019.49,1345.71,1019.58,1369.82,1025.23,1392.97z M967.2,1416.46
	c0.13-20.5-2.84-43-7.89-65.21c-2.45-10.8-7.44-20.61-14.51-29.25c-6.18-7.56-18.96-6.11-24.43,2.14
	c-7.1,10.73-11,22.81-13.93,34.91c-8.85,36.55-11.19,73.69-7.16,111.17c2.71,25.25,8.06,49.74,21.52,71.7
	c3.89,6.35,9.37,11.24,17.77,11.11c8.2-0.13,10.51-6.75,13.24-12.32c2.53-5.17,4.44-10.82,5.54-16.47
	C964.16,1489.43,967.47,1454.27,967.2,1416.46z M1141.31,1427.41c1.34-18.87-2.19-38.35-3.73-58c-1.04-13.27-7.5-23.86-12.22-35.4
	c-1.16-2.83-3.96-3.93-7.16-4.26c-9.32-0.97-14.95,4-18.85,17.05c-5.94,19.88-10.54,40.06-12.37,60.75
	c-1.81,20.33-4.84,40.71-0.93,61.12c3.48,18.15,8.62,35.86,14.22,53.46c2.8,8.81,8.29,15.8,14.78,22.1
	c3.24,3.14,7.86,4.48,9.79-0.04c3.41-7.94,9.9-14.88,10.21-23.81C1136.13,1489.62,1143.33,1459.31,1141.31,1427.41z"/>
<path d="M413.1,1458.8c-3.67,18.01-7.23,36.04-11.04,54.01c-3.14,14.79-5.47,29.88-16.05,41.92c-9.46,10.76-33.22,10.69-42.26-0.33
	c-18.68-22.78-27.45-50.11-35.63-77.67c-4.93-16.59-10.31-32.99-17.09-50.63c-3.71,5.25-2.23,9.83-2.72,13.93
	c-1.77,14.8-3.81,29.58-4.92,44.43c-1.2,16.19-0.66,32.26,3.49,48.28c3.09,11.92,2.73,24.51,1.85,36.85
	c-0.82,11.44-5.65,16.1-16.95,17.21c-2.26,0.22-4.54,0.13-6.82,0.15c-24.22,0.21-33-8.55-35.8-33.15
	c-7.12-62.59-0.74-125.22-1.34-187.83c-0.26-27.26,0.91-54.54,1.46-81.81c0.22-10.8,8.95-23.96,18.25-27.6
	c10.8-4.23,22.74-0.96,31.86,7.7c7.94,7.55,12.66,17.01,17.31,26.53c14.11,28.89,30.51,56.73,41.3,87.13
	c6.15,17.32,11.01,35.09,16.4,52.67c0.74,2.43,0.76,5.72,4.11,5.63c2.75-0.07,2.91-3.11,3.45-5.24
	c4.73-18.46,8.67-37.17,14.29-55.36c10.16-32.91,18.85-66.5,36.68-96.48c5.6-9.43,12.72-16.83,25.16-18.55
	c14.42-1.99,26.1,9.77,28.2,21.87c4.87,27.92,5.84,56.11,7.11,84.29c2.34,51.57,4.45,103.16,4,154.8
	c-0.12,14.22,0.16,28.55-4.08,42.45c-4.26,13.99-18.77,25.02-36.23,21.48c-9.49-1.92-13.22-9.66-16.3-17.35
	c-4.93-12.32-4.13-25.56-4.35-38.48c-0.4-23.61-0.11-47.22-0.11-70.84C415.27,1458.82,414.18,1458.81,413.1,1458.8z"/>
<path d="M1205.63,1446.56c0.66-22.4-0.23-48.72,6.29-74.47c6.77-26.76,16.69-52,35.01-73.23c11.17-12.94,26.99-17.6,42.04-23.81
	c10.88-4.49,20.35-1.76,31.43,0.7c39.51,8.78,51.44,39.29,60.42,72.16c12.78,46.76,10.98,94.49,4.37,141.77
	c-4.63,33.1-14.32,64.79-34.46,93.07c-20.88,29.32-62.7,28.96-87.11,15.39c-34.03-18.93-46.1-50.81-54.31-85.81
	C1204.5,1491.78,1205.49,1471.1,1205.63,1446.56z M1325.95,1436.36c-1.15-9.06,1.8-20.52-1.88-31.62
	c-3.51-10.58-4.98-21.52-4.61-32.59c0.51-15.3-7.26-27.04-16.33-37.91c-3.55-4.24-10.14-4.79-13.14,1.1
	c-4.65,9.13-10.69,17.86-12.3,28.24c-3.42,22.06-7.01,44-7.45,66.54c-0.69,35.81,0.57,71.02,16.08,104.12
	c2.79,5.95,6.19,12.05,14.56,12.07c5.72,0.01,10.03-2.56,11.02-7.65c2.28-11.66,8.48-22.42,7.39-34.91
	c-0.64-7.4-0.21-15.02,2.01-22.21C1325.63,1467.48,1326.03,1453.05,1325.95,1436.36z"/>
<path d="M1580.47,1430.55c-0.3,25.33-1.97,50.55-8.16,75.24c-7.92,31.62-28.39,53.16-56.12,68.67c-24.23,13.55-49.65,21.15-78,21.32
	c-23.83,0.14-31.77-13.65-32.82-30.76c-1.5-24.27-2.09-48.63-2.27-72.95c-0.46-61.37-0.55-122.74-0.64-184.11
	c-0.03-20.89,8.83-29.26,29.46-27.41c18.12,1.62,36.27,2.14,54.42,3.04c15.01,0.74,27.43,8.77,38.81,17.29
	c29.97,22.45,43.79,54.71,51.39,90.08C1579.33,1403.91,1581.12,1417.14,1580.47,1430.55z M1456.98,1442.83c0.78,0,1.55,0,2.33,0
	c0,36.36-0.04,72.71,0.09,109.07c0.01,2.8-1.76,7.26,3.39,7.65c5.47,0.42,11.1,0.72,16.18-2.16c21.92-12.45,35.7-32.04,42.34-55.3
	c12.55-44.03,8.98-87.98-7.32-130.62c-7.64-19.99-21.04-35.71-40.58-45.49c-11.41-5.72-16.32-2.92-16.38,9.73
	C1456.88,1371.4,1456.98,1407.12,1456.98,1442.83z"/>
<path d="M836.87,1418.86c-1.57,38.84-0.92,77.81-14.6,115.3c-7.36,20.16-19.31,36.56-34.8,50.62
	c-11.03,10.01-45.58,11.67-59.54,5.67c-38.47-16.54-54.37-49.6-60.68-86.96c-7.53-44.64-6.84-90.08,2.33-134.65
	c5.54-26.95,16.17-52.12,35.31-73.01c9.99-10.9,22.48-16.65,36.17-20.43c24.67-6.81,47.33-2.61,65.96,15.24
	c13.14,12.6,18.46,29.78,23.27,46.98C837.78,1364.32,836.36,1391.64,836.87,1418.86z M783.18,1438.39
	c0.08-28.97,0.26-52.69-4.48-76.06c-2.77-13.62-5.95-27.18-14.16-38.88c-5.21-7.42-20.05-8.67-24.1-1.58
	c-4.16,7.27-8.45,14.75-10.83,22.69c-9.17,30.49-14.26,61.67-14.37,93.64c-0.06,16.69,3.97,32.77,6.25,49.1
	c2.76,19.77,10.83,37.73,20.73,54.77c2.74,4.72,8.43,9.2,14.24,8.47c5.61-0.7,9.87-4.9,12.26-11.12c3.16-8.19,5.84-16.44,7.45-25.02
	C781.18,1487.55,783.74,1460.47,783.18,1438.39z"/>
<path d="M481.94,1445.54c0.72-30.85,1.72-61.68,9.93-91.67c6.11-22.32,15.43-43.99,31.8-59.97c12.89-12.58,27.8-25.73,49.42-23.03
	c13.76,1.72,27.48-1.41,40.69,7.88c19.72,13.86,28.33,33.41,34.34,54.99c11.5,41.27,11.91,83.76,7.89,125.63
	c-3.62,37.69-11.25,75.32-34.93,107.29c-10.57,14.27-23.64,22.21-41.41,22.2c-4.22,0-8.47-0.47-12.66-0.16
	c-30.74,2.21-49.5-15.22-64.19-39.09c-15.78-25.63-19.86-54.28-20.84-83.63C481.75,1459.18,481.94,1452.36,481.94,1445.54z
	 M600.68,1423.36c0-14.92,0.46-29.86-0.11-44.76c-0.76-19.65-5.56-38.36-15.41-55.59c-6.92-12.11-22.5-12.76-29.22-0.96
	c-3.02,5.31-5.82,10.89-7.68,16.68c-13.73,42.67-16.33,86.43-11.24,130.68c2.67,23.2,7.85,45.86,19.76,66.48
	c4.07,7.04,8.26,13.28,17.67,12.42c9.47-0.87,11.18-8.43,13.55-15.54C599.81,1497.19,602.3,1460.49,600.68,1423.36z"/>
<path d="M1660.16,1541.21c0.1-32.52-1.42-64.97-10.85-96.29c-7.47-24.79-20.69-47.22-31.56-70.61
	c-9.62-20.69-21.64-40.3-27.36-62.78c-6.56-25.79,8.21-44.02,34.45-41.77c7.67,0.66,11.94,5.44,15.53,11.34
	c8.25,13.55,12.06,29.06,19.16,43.14c10.73,21.27,21.12,42.72,31.57,64.13c3.02,6.19,5.29,3.9,7.94-0.29
	c9.68-15.28,17.51-31.51,22.86-48.71c4.31-13.85,8.25-27.85,11.37-42.1c3.18-14.55,15.28-30.44,33.82-28.35
	c11.08,1.25,18.49,7.02,20.08,18.37c2.81,20.09-0.55,39.07-8.44,57.86c-16.12,38.36-38.61,73.29-57.99,109.88
	c-2.41,4.56-3.7,8.76-3.76,13.67c-0.45,34.08-0.92,68.15-1.38,102.23c-0.02,1.62,0.02,3.25-0.01,4.87
	c-0.3,18.49-9.57,30.97-23.21,31.26c-18.76,0.4-31.43-11.5-32.14-30.78C1659.81,1564.6,1660.16,1552.9,1660.16,1541.21z"/>
<path d="M1100.65,745.44c-11.69,0-23.39-0.25-35.07,0.05c-22.74,0.58-37.71-19.53-35.84-40.97c1.6-18.38,6.45-34.62,21.25-46.99
	c6.22-5.2,12.81-8.6,20.76-8.51c34.4,0.41,49.45-24.27,57.23-49.6c2.28-7.41,4.21-14.94,6.93-22.19
	c6.98-18.62,21.07-25.15,43.25-18.82c22.14,6.32,35.74,21.9,42.41,43.59c1.8,5.85,3.43,12,3.57,18.05
	c0.49,22.25,12.85,36.2,30.06,48.41c14.69,10.42,29.72,21.07,37.24,38.96c7.35,17.49,5.04,34.04-5.05,48.91
	c-10.82,15.95-26.92,20.31-45.99,17.19c-16.76-2.74-30.96-12.13-47.32-15.89C1163.29,750.54,1132.53,744.03,1100.65,745.44z"/>
<path d="M1452.86,792.15c39.7-0.6,76.08,28.99,91.09,66.22c7.62,18.92,12.65,38.02,6.42,58.65c-5.52,18.25-24.13,32.69-38.94,31.96
	c-11.86-0.59-21.13-6.5-28.01-15.04c-19.5-24.19-39.42-48.21-56.85-73.87c-15.99-23.55-17.96-42.5,8.15-64.22
	C1440.67,790.89,1447.59,792.87,1452.86,792.15z"/>
<path d="M349.32,707.98c1.25-10.73-0.06-24.44,9.37-35.48c4.79-5.61,11.31-6.14,14.07-0.05c6.69,14.73,20.99,23.22,28.85,36.89
	c6.1,10.61,11.76,21.35,15.77,32.98c3.38,9.8,0.81,18.74-3.51,27.16c-6.38,12.41-24.89,14.65-35.84,5.42
	C357.88,757.95,349.04,736.21,349.32,707.98z"/>
<path d="M572.01,600.72c-12.43-1.75-23.6-12.3-32.18-24.32c-7.91-11.07-13.55-23.98-17.48-37.38c-1.42-4.84-1.73-9.45-1.11-14.31
	c0.99-7.74,6.23-11.99,12.95-13.71c6.64-1.7,9.68,4.54,12.47,8.78c8.13,12.31,16.34,24.71,27.96,33.77
	c6.6,5.15,13.15,9.54,16.93,17.38C598.07,584.5,589.74,600.67,572.01,600.72z"/>
<path d="M497.82,648.8c5.51,0,11.02-0.19,16.52,0.04c10.5,0.45,15.76,7.42,12.46,17.44c-3.53,10.73-9.45,20.52-15.95,29.6
	c-8.49,11.88-23.47,10.89-30.71-1.67c-5.59-9.7-10.33-19.93-14.98-30.13c-3.51-7.73,0.12-13.78,9.36-14.79
	c7.68-0.84,15.52-0.17,23.29-0.17C497.82,649.01,497.82,648.91,497.82,648.8z"/>
</svg>
